# xmcd
#
# Track frame offsets:
# 150
# 13446
# 26873
# 44519
# 54536
# 67965
# 81576
# 94988
# 108228
# 121983
# 135367
# 148579
# 162179
# 175955
# 184355
# 189339
# 202710
# 216127
# 230219
# 243039
# 256812
# 269952
# 283879
# 297315
# 306449
# 324148
# 337451
#
# Disc length: 4652 seconds
#
#
# Revision: 0
# Processed by: cddbd v1.5.2PL0 Copyright (c) Steve Scherf et al.
# Submitted via: FreeRIP 2.945 
#
DISCID=aa122a1b
DTITLE=Murphy-P2001 - Wild-Angel4
DYEAR=2001
DGENRE=Jungle
TTITLE0=WA 401
TTITLE1=WA 402
TTITLE2=WA 403
TTITLE3=WA 404
TTITLE4=WA 405
TTITLE5=WA 406
TTITLE6=WA 407
TTITLE7=WA 408
TTITLE8=WA 409
TTITLE9=WA 410
TTITLE10=WA 411
TTITLE11=WA 412
TTITLE12=WA 413
TTITLE13=WA 414
TTITLE14=WA 415
TTITLE15=WA 416
TTITLE16=WA 417
TTITLE17=WA 418
TTITLE18=WA 419
TTITLE19=WA 420
TTITLE20=WA 421
TTITLE21=WA 422
TTITLE22=WA 423
TTITLE23=WA 424
TTITLE24=WA 425
TTITLE25=WA 426
TTITLE26=WA 427
EXTD=Wild Angel by Pat (Patrice) Murphy 9 CDs\nread by Bernadette Dunne Blackstone Audio\njungle country
EXTT0=
EXTT1=
EXTT2=
EXTT3=
EXTT4=
EXTT5=
EXTT6=
EXTT7=
EXTT8=
EXTT9=
EXTT10=
EXTT11=
EXTT12=
EXTT13=
EXTT14=
EXTT15=
EXTT16=
EXTT17=
EXTT18=
EXTT19=
EXTT20=
EXTT21=
EXTT22=
EXTT23=
EXTT24=
EXTT25=
EXTT26=
PLAYORDER=
